<svg width="92" height="109" viewBox="0 0 92 109" fill="none" xmlns="http://www.w3.org/2000/svg">
<path d="M89.3764 14.7011C83.7941 29.2617 76.9275 44.0157 68.7765 58.963C60.6419 74.078 51.2823 86.7064 40.6977 96.8481C35.7161 101.635 30.5382 104.934 25.1639 106.746C19.7897 108.559 14.6055 108.507 9.61129 106.593C6.30526 105.325 3.69623 103.397 1.78421 100.808C-0.198149 98.1928 -0.528623 95.1616 0.79279 91.7149C2.1142 88.2682 4.4995 85.8344 7.94867 84.4137C7.82306 88.3188 8.28073 91.4391 9.32169 93.7745C10.3357 96.1803 12.4605 98.0034 15.6962 99.2439C18.9319 100.484 22.4092 100.043 26.128 97.9184C29.9172 95.8212 33.6807 92.4233 37.4184 87.7246C41.1561 83.0259 44.8229 77.7756 48.4189 71.9737C52.0417 66.1014 55.572 59.6289 59.0097 52.5562C65.4642 39.2981 70.8758 26.9715 75.2446 15.5762C77.7526 9.03452 78.8343 4.00334 78.4898 0.482702C79.4359 0.119309 80.7068 -0.038904 82.3024 0.00806342C83.9683 0.0819943 85.364 0.334701 86.4895 0.766183C88.8811 1.68308 90.3376 3.25002 90.8593 5.467C91.4078 7.61363 90.9135 10.6917 89.3764 14.7011Z" fill="black"/>
</svg>
